<svg xmlns="http://www.w3.org/2000/svg" xmlns:xlink="http://www.w3.org/1999/xlink" viewBox="8 10.9 200 50"><defs><symbol id="c" overflow="visible"><path d="M11.25-20.172c1.965 0 3.723.395 5.266 1.172 1.539.781 2.742 1.887 3.609 3.313l-4.578 2.78c-.992-1.382-2.34-2.077-4.047-2.077-1.23 0-2.238.464-3.016 1.39-.773.93-1.156 2.145-1.156 3.64 0 1.532.379 2.763 1.14 3.688.77.918 1.782 1.375 3.032 1.375 1.871 0 3.234-.75 4.078-2.25l4.656 2.735c-.812 1.48-2.007 2.62-3.578 3.422C15.094-.18 13.262.219 11.172.219c-3.086 0-5.57-.926-7.453-2.781C1.832-4.426.89-6.88.89-9.922c0-3.05.953-5.52 2.859-7.406 1.914-1.895 4.414-2.844 7.5-2.844Zm0 0" style="stroke:none"/></symbol><symbol id="d" overflow="visible"><path d="M11.5-20.234c2.738 0 4.867.636 6.39 1.906 1.52 1.273 2.29 3.039 2.313 5.297V0h-6.25v-2.297C12.641-.567 10.602.297 7.843.297c-2.093 0-3.761-.578-5-1.734C1.614-2.603 1-4.11 1-5.954c0-1.902.656-3.379 1.969-4.422 1.32-1.05 3.219-1.586 5.687-1.61h5.25v-.296c0-.989-.332-1.758-.984-2.313-.649-.55-1.613-.828-2.89-.828-1.805 0-3.794.555-5.97 1.656L2.25-17.984c3.238-1.496 6.32-2.25 9.25-2.25ZM9.812-4.031c1.008 0 1.895-.25 2.657-.75.758-.508 1.238-1.172 1.437-1.985v-1.78H9.875C7.957-8.547 7-7.833 7-6.407c0 .742.242 1.324.734 1.75.489.418 1.18.625 2.079.625Zm0 0" style="stroke:none"/></symbol><symbol id="e" overflow="visible"><path d="M8.953-19.938v3.36c1.402-2.395 3.563-3.613 6.469-3.656v5.765c-1.824-.164-3.317.145-4.469.922-1.156.774-1.824 1.871-2 3.297V0H2.547v-19.938Zm0 0" style="stroke:none"/></symbol><symbol id="f" overflow="visible"><path d="M11.281-20.172c3.457 0 6.055 1.067 7.797 3.188 1.738 2.125 2.492 5.039 2.266 8.734H7.328c.32 1.188.89 2.105 1.703 2.75.809.637 1.813.953 3 .953 1.82 0 3.41-.68 4.766-2.047l3.375 3.297C18.023-.953 15.122.22 11.469.22c-3.23 0-5.805-.922-7.719-2.766C1.844-4.398.89-6.859.89-9.922c0-3.082.954-5.562 2.86-7.437 1.914-1.871 4.426-2.813 7.531-2.813ZM7.22-11.687h7.984c0-1.208-.355-2.18-1.062-2.922-.7-.739-1.63-1.11-2.782-1.11-1.086 0-1.996.367-2.734 1.094-.742.719-1.21 1.7-1.406 2.938Zm0 0" style="stroke:none"/></symbol><symbol id="g" overflow="visible"><path d="M15.094-20.172c2.808 0 5.07.95 6.781 2.844 1.715 1.887 2.578 4.371 2.578 7.453 0 3.031-.84 5.477-2.515 7.328C20.258-.703 18.027.22 15.25.22c-2.617 0-4.652-.957-6.11-2.875v9.828H2.735v-27.11h6.407v2.625c1.476-1.902 3.46-2.859 5.953-2.859ZM13.547-4.844c1.332 0 2.41-.484 3.234-1.453.82-.976 1.235-2.234 1.235-3.766 0-1.527-.414-2.773-1.235-3.734-.824-.965-1.902-1.453-3.234-1.453-1.281 0-2.34.488-3.172 1.453-.824.961-1.234 2.207-1.234 3.735 0 1.554.406 2.816 1.218 3.78.809.962 1.875 1.438 3.188 1.438Zm0 0" style="stroke:none"/></symbol><clipPath id="a"><path d="M111.188 13.145H205v38.742h-93.813Zm0 0"/></clipPath><clipPath id="b"><path d="M140.64 13.145h58.169a5.99 5.99 0 0 1 5.203 3.02 5.999 5.999 0 0 1-.051 6.015l-12.242 20.672a18.422 18.422 0 0 1-15.852 9.035h-58.172a5.984 5.984 0 0 1-5.148-9.035l12.242-20.672a18.417 18.417 0 0 1 15.852-9.035Zm0 0"/></clipPath></defs><g style="transform-origin:4.09756px 2.91857px"><path d="M0 0h210v61.5H0Zm0 0" style="stroke:none;fill-rule:nonzero;fill:none;fill-opacity:1" transform="matrix(.9762 0 0 .97561 5.402 5.829)"/><g clip-path="url(#a)" transform="matrix(.9762 0 0 .97561 5.402 5.829)"><g clip-path="url(#b)"><path d="M107.195 13.145H209.31v38.742H107.195Zm0 0" style="stroke:none;fill-rule:nonzero;fill:#2b59ff;fill-opacity:1" transform="translate(0 .283)"/></g></g><use xlink:href="#c" style="fill:#2b59ff;fill-opacity:1" transform="matrix(.9762 0 0 .97561 13.95 49.47)"/><use xlink:href="#d" style="fill:#2b59ff;fill-opacity:1" transform="matrix(.9762 0 0 .97561 32.123 49.47)"/><use xlink:href="#e" style="fill:#2b59ff;fill-opacity:1" transform="matrix(.9762 0 0 .97561 51.662 49.47)"/><use xlink:href="#f" style="fill:#2b59ff;fill-opacity:1" transform="matrix(.9762 0 0 .97561 64.976 49.47)"/><use xlink:href="#f" style="fill:#2b59ff;fill-opacity:1" transform="matrix(.9762 0 0 .97561 84.587 49.47)"/><use xlink:href="#e" style="fill:#2b59ff;fill-opacity:1" transform="matrix(.9762 0 0 .97561 104.199 49.47)"/><use xlink:href="#d" style="fill:#fff;fill-opacity:1" transform="matrix(.9762 0 0 .97561 123.554 49.46)"/><use xlink:href="#g" style="fill:#fff;fill-opacity:1" transform="matrix(.9762 0 0 .97561 143.093 49.46)"/><use xlink:href="#g" style="fill:#fff;fill-opacity:1" transform="matrix(.9762 0 0 .97561 165.691 49.46)"/></g></svg>